<?xml version="1.0" encoding="UTF-8"?>
<svg width="185px" height="57px" viewBox="0 0 185 57" version="1.1" xmlns="http://www.w3.org/2000/svg" xmlns:xlink="http://www.w3.org/1999/xlink">
    <!-- Generator: Sketch 55.1 (78136) - https://sketchapp.com -->
    <title>Group 62 Copy@1x</title>
    <desc>Created with Sketch.</desc>
    <g id="Page-1" stroke="none" stroke-width="1" fill="none" fill-rule="evenodd">
        <g id="Group-62-Copy">
            <g id="Group-Copy" transform="translate(129.000000, 0.000000)">
                <polygon id="Fill-982" fill="#1A1919" points="22.7469804 56.2474167 33.1653511 56.2474167 33.1653511 0.196088812 22.7469804 0.196088812"></polygon>
                <polygon id="Fill-983" fill="#D4812A" points="0.160974042 33.4741317 55.7513574 33.4741317 55.7513574 22.9693739 0.160974042 22.9693739"></polygon>
                <g id="Group-988" transform="translate(0.000000, 0.006385)">
                    <path d="M0.160892329,33.4678494 L0.160892329,22.9630916 C12.614931,22.9630916 22.7468986,12.7471116 22.7468986,0.189806555 L33.1652694,0.189806555 C33.1652694,18.5393527 18.3595389,33.4678494 0.160892329,33.4678494" id="Fill-984" fill="#FFFFFF"></path>
                    <path d="M33.1652694,56.2411345 L22.7468986,56.2411345 C22.7468986,37.8915883 37.5526291,22.9630916 55.7512757,22.9630916 L55.7512757,33.4678494 C43.297237,33.4678494 33.1652694,43.6838294 33.1652694,56.2411345" id="Fill-986" fill="#ED9F2D"></path>
                </g>
            </g>
            <g id="Group-2-Copy" transform="translate(0.000000, 13.000000)" fill="#FFFFFF">
                <path d="M63.885,25.9320711 L60.1928571,25.9320711 L60.1915714,29.619338 L60.1915714,33.2931572 L63.8344286,33.3209202 L63.8344286,30.9953392 C63.8344286,30.3142793 64.4571429,29.619338 65.1638571,29.619338 L67.5527143,29.619338 L67.5767143,29.619338 C69.6081429,29.6262787 71.2594286,27.8889253 71.2598571,25.9320711 L67.5535714,25.9320711 L63.885,25.9320711 Z" id="Fill-346"></path>
                <path d="M82.0617429,14.8543066 L82.0617429,14.8586446 C82.0617429,16.7413197 80.4451714,18.5302948 78.3618857,18.5302948 L74.9727429,18.5302948 L74.9727429,18.5437425 L71.2163143,18.5302948 L67.5477429,18.5302948 L65.1584571,18.5302948 C64.4517429,18.5302948 63.8787429,17.9915201 63.8787429,17.310894 L63.8791714,14.9510431 L63.8787429,14.8261099 C63.8787429,12.9638232 62.1751714,11.155761 60.1904571,11.155761 L60.1926,22.2310094 L67.5537429,22.2310094 L71.2223143,22.2310094 L74.9787429,22.2310094 L74.9787429,22.2310094 L78.3678857,22.2310094 C82.3934571,22.2310094 85.6921714,18.7936091 85.6921714,14.8929145 L85.6921714,11.1692087 C83.7383143,11.1692087 82.0617429,12.8601459 82.0617429,14.8543066" id="Fill-348"></path>
                <polygon id="Fill-350" points="100.252286 11.1689484 103.920857 11.1689484 103.920857 7.48471805 100.252286 7.48471805"></polygon>
                <polygon id="Fill-352" points="109.352143 3.79398076 113.020714 3.79398076 113.020714 0.112786988 109.352143 0.112786988"></polygon>
                <g id="Group" transform="translate(0.000000, 0.052923)">
                    <path d="M116.6955,7.42576515 L109.371214,7.4318383 L109.371214,13.5505324 C109.371214,14.2315923 109.903071,14.8033356 110.610214,14.8033356 L113.015786,14.8033356 C113.123357,16.5246385 111.496929,18.3795507 109.746214,18.4910363 L109.3785,18.4910363 C109.378071,18.4906025 109.333929,18.4910363 109.333071,18.4910363 L105.204214,18.4910363 C104.497071,18.4910363 103.9245,17.9388138 103.9245,17.2577539 L103.940357,14.8033356 L100.2555,14.8033356 L100.2555,17.2577539 C100.2555,17.9388138 99.6756429,18.47889 98.9689286,18.47889 L93.0533571,18.4910363 L93.0100714,0.0542678931 L89.3415,0.0542678931 L89.3350714,22.1783032 L104.690357,22.1783032 L104.690357,22.1783032 L109.985786,22.1783032 L109.985786,22.1488051 C113.716929,21.8299649 116.692071,18.5270414 116.6925,14.8033356 L116.6925,14.8033356 L116.6955,7.42576515 Z" id="Fill-353"></path>
                    <path d="M27.4050429,14.8034657 L27.4050429,15.1088582 L27.4050429,17.2700304 C27.4050429,17.9510903 26.8191857,18.4907326 26.1124714,18.4907326 L24.9780429,18.4907326 C24.2713286,18.4907326 23.7621857,17.9641041 23.7621857,17.283478 L23.7621857,14.8099726 L20.1193286,14.7969588 L20.1193286,17.2730669 C20.1193286,17.9541268 19.4439,18.4907326 18.7371857,18.4907326 L17.5984714,18.4907326 C16.8917571,18.4907326 16.4760429,17.9541268 16.4760429,17.2730669 L16.4760429,14.7969588 L12.8074714,14.7969588 L12.8074714,18.6434288 L12.8074714,22.1779995 L12.8074714,22.1779995 L12.8203286,25.8657002 C12.8203286,27.7440374 11.2809,29.5529672 9.19032857,29.5529672 L7.5189,29.5529672 C5.39832857,29.5529672 3.7389,27.7080323 3.7389,25.8657002 L3.75175714,22.1129301 L3.75175714,22.1129301 L3.75175714,18.5783594 L3.75175714,15.0433549 L3.75175714,14.9574633 C3.75175714,13.2131692 2.08161429,11.1161988 0.0827571429,11.1161988 L0.0827571429,15.0433549 L0.0827571429,18.5783594 L0.0827571429,22.1129301 L0.0827571429,22.1129301 L0.0699,25.8657002 C0.0699,29.7559837 3.45132857,33.2402341 7.51761429,33.2402341 L9.19032857,33.2402341 C13.2373286,33.2402341 16.4889,29.8102083 16.4889,25.8657002 L16.4760429,22.1779995 L20.0169,22.1779995 L23.6854714,22.1779995 L26.5689,22.1779995 C29.0426143,22.1779995 31.0479,20.2458717 31.0479,17.8625959 L31.0479,11.1161988 C29.1527571,11.1161988 27.4050429,13.0726192 27.4050429,14.8034657" id="Fill-354"></path>
                    <path d="M49.1977714,25.8655267 L45.4914857,25.8759378 C45.4914857,27.8267189 47.1354857,29.5588668 49.1600571,29.5527936 L49.1969143,29.5527936 L51.5857714,29.5527936 C52.2924857,29.5527936 52.9087714,30.2199721 52.9087714,30.9010319 L52.9023429,33.2266129 L56.5486286,33.2266129 L56.5550571,29.5527936 L56.5559143,25.8655267 L52.8663429,25.8655267 L49.1977714,25.8655267 Z" id="Fill-355"></path>
                    <path d="M52.9002,14.8041164 L52.9057714,17.2654755 C52.9057714,17.9461016 52.3242,18.4900819 51.6174857,18.4900819 L48.9886286,18.4896481 L46.8912,18.4896481 C46.1840571,18.4896481 45.6196286,17.9456678 45.6196286,17.2646079 L45.6196286,15.1073399 L45.6196286,11.5727692 L45.6196286,7.97486427 L45.6196286,4.44029358 L45.6196286,4.44029358 L45.6196286,0.0541811339 L41.9767714,0.0541811339 L41.9767714,4.44029358 L41.9767714,4.44029358 L41.9767714,7.97486427 L41.9767714,11.5727692 L41.9767714,11.5727692 L41.9767714,15.0973626 C41.9767714,17.0637603 40.3957714,18.485744 38.3339143,18.485744 L38.3339143,18.4844426 L38.3339143,0.0541811339 L34.6910571,0.0541811339 L34.4480571,22.176915 L38.1290571,22.1782164 C39.8866286,22.1782164 41.5070571,21.5505135 42.7773429,20.5319602 C43.5976286,21.5331616 44.8657714,22.1782164 46.2924857,22.1782164 L48.9972,22.176915 L56.5486286,22.1782164 L56.5430571,14.8978164 L56.5464857,11.1294296 C54.6487714,11.1294296 52.9002,13.0641602 52.9002,14.8041164" id="Fill-356"></path>
                </g>
            </g>
        </g>
    </g>
</svg>