<?xml version="1.0" encoding="UTF-8"?>
<svg width="50px" height="59px" viewBox="0 0 50 59" version="1.1" xmlns="http://www.w3.org/2000/svg" xmlns:xlink="http://www.w3.org/1999/xlink">
    <!-- Generator: Sketch 55.1 (78136) - https://sketchapp.com -->
    <title>Group 34</title>
    <desc>Created with Sketch.</desc>
    <g id="Page-1" stroke="none" stroke-width="1" fill="none" fill-rule="evenodd">
        <g id="Group-34" transform="translate(-6.000000, -1.000000)">
            <rect id="Rectangle-Copy-43" fill="#D8D8D8" opacity="0" x="0" y="0" width="60" height="60"></rect>
            <g id="Group-33" transform="translate(6.000000, 1.000000)" fill="#FFFFFF">
                <path d="M4.2521,46.4496748 L4.42621993,46.4496748 C6.33524572,46.4496748 8.02819497,47.6106988 8.73726169,49.4075217 C9.44632841,51.2043446 9.01207749,53.2286941 7.62750933,54.561958 C7.58765055,54.6002335 7.50583516,54.6810374 7.56877008,54.8405187 C7.63170499,55 7.74708567,55 7.80162927,55 L41.7046686,55 C41.7592122,55 41.8745928,55 41.9375278,54.8405187 C42.0004627,54.6810374 41.9165494,54.6002335 41.8766907,54.561958 C40.4942203,53.2286941 40.0599694,51.2043446 40.7690361,49.4075217 C41.4781029,47.6106988 43.1689543,46.4496748 45.0779801,46.4496748 L45.2521,46.4496748 L45.2521,34.9138592 C45.2521,21.4132338 37.0453869,9.08639093 24.7521,4 C12.4609109,9.08639093 4.2521,21.4132338 4.2521,34.9138592 L4.2521,46.4496748 Z M41.7753813,59 L7.72881869,59 C6.01606234,59 4.49712343,57.9656188 3.86089659,56.3652955 C3.22466976,54.7649722 3.61441136,52.9632836 4.85526437,51.7741692 C5.17337778,51.468942 5.10385631,51.127681 5.03433483,50.9496318 C4.96270665,50.7737022 4.77942276,50.4748338 4.33912008,50.4748338 L0.2521,50.4748338 L0.2521,35.0396623 C0.2521,19.7062332 9.81656967,5.73360877 24.0537252,0.269193461 L24.7510466,0 L25.4504748,0.269193461 C39.6855236,5.73360877 49.2521,19.7062332 49.2521,35.0396623 L49.2521,50.4748338 L45.1629732,50.4748338 C44.7226705,50.4748338 44.5393866,50.7737022 44.4698652,50.9496318 C44.398237,51.1255613 44.3287155,51.468942 44.6468289,51.7741692 C45.8876819,52.9632836 46.2795302,54.7649722 45.6411967,56.3652955 C45.0070766,57.9656188 43.4881377,59 41.7753813,59 L41.7753813,59 Z" id="Fill-2982"></path>
                <path d="M24.5,51 C18.5099181,51 12.9554406,47.8729904 10,42.8388264 L13.3681184,41 C15.639931,44.8645498 19.9042691,47.2680868 24.5,47.2680868 C29.0957309,47.2680868 33.360069,44.8645498 35.6318816,41 L39,42.8388264 C36.0445594,47.8729904 30.4900819,51 24.5,51" id="Fill-2983"></path>
                <polygon id="Fill-2984" points="4 28 45 28 45 25 4 25"></polygon>
                <polygon id="Fill-2985" points="23 26 26 26 26 3 23 3"></polygon>
                <path d="M30.4775269,28 C30.3295194,28.3470621 30.2521,28.7182867 30.2521,29.1048874 C30.2521,30.7018122 31.5978306,32 33.2509615,32 C34.9063694,32 36.2521,30.7018122 36.2521,29.1048874 C36.2521,28.7182867 36.1746806,28.3470621 36.0266731,28 L30.4775269,28 Z M33.2521,36 C29.3938323,36 26.2521,33.1685332 26.2521,29.6893064 C26.2521,28.2229046 26.8253283,26.7942558 27.8615488,25.6676301 L28.4766669,25 L38.0297378,25 L38.6426512,25.6676301 C39.6810764,26.7942558 40.2521,28.2229046 40.2521,29.6893064 C40.2521,33.1685332 37.1125724,36 33.2521,36 L33.2521,36 Z" id="Fill-2986"></path>
                <path d="M13.4775269,28 C13.3295194,28.3470621 13.2521,28.7182867 13.2521,29.1048874 C13.2521,30.7018122 14.5978306,32 16.2509615,32 C17.9063694,32 19.2521,30.7018122 19.2521,29.1048874 C19.2521,28.6765513 19.1587414,28.3075233 19.0266731,28 L13.4775269,28 Z M16.2509978,36 C12.3933376,36 9.2521,33.1685332 9.2521,29.6893064 C9.2521,28.2229046 9.82523809,26.7942558 10.8612954,25.6676301 L11.4763167,25 L21.0278833,25 L21.6407002,25.6676301 C22.6789619,26.7942558 23.2521,28.2248916 23.2521,29.6893064 C23.2521,33.1685332 20.1108624,36 16.2509978,36 L16.2509978,36 Z" id="Fill-2987"></path>
            </g>
        </g>
    </g>
</svg>