<?xml version="1.0" encoding="UTF-8"?>
<svg width="53px" height="60px" viewBox="0 0 53 60" version="1.1" xmlns="http://www.w3.org/2000/svg" xmlns:xlink="http://www.w3.org/1999/xlink">
    <!-- Generator: Sketch 55.1 (78136) - https://sketchapp.com -->
    <title>Group 76</title>
    <desc>Created with Sketch.</desc>
    <g id="Page-1" stroke="none" stroke-width="1" fill="none" fill-rule="evenodd">
        <g id="Group-76" transform="translate(-3.000000, 0.000000)">
            <rect id="Rectangle-Copy-41" fill="#D8D8D8" opacity="0" x="0" y="0" width="60" height="60"></rect>
            <g id="Group-31" transform="translate(3.000000, 0.000000)" fill="#FFFFFF">
                <path d="M26.5,60 C25.3256069,60 24.1532179,59.6962993 23.1050821,59.0888978 L3.39491795,47.6689461 C1.30065038,46.4561545 0,44.1954948 0,41.7699115 L0,18.9279968 C0,16.5024135 1.30065038,14.2397426 3.39491795,13.0269509 L21.2793617,2.66693484 C22.2232852,2.11786002 22.8124858,1.09613837 22.8124858,0 L26.5340694,0 C26.5340694,2.42759453 25.233419,4.68825422 23.1411556,5.90104586 L5.25671179,16.2630732 C4.31078424,16.8101368 3.72358769,17.8318584 3.72358769,18.9279968 L3.72358769,41.7699115 C3.72358769,42.8640386 4.31078424,43.8857603 5.25671179,44.4348351 L24.9668759,55.8547868 C25.9128034,56.4018504 27.0871966,56.4018504 28.0331241,55.8547868 L47.7452923,44.4348351 C48.6892158,43.8857603 49.2764123,42.8640386 49.2764123,41.7699115 L49.2764123,20.2594529 L53,20.2594529 L53,41.7699115 C53,44.1954948 51.6993496,46.4561545 49.6070861,47.6689461 L29.8949179,59.0888978 C28.8467821,59.6962993 27.6743931,60 26.5,60" id="Fill-3012"></path>
                <path d="M17,22 C15.1985876,22 13.7333333,23.5699153 13.7333333,25.5 C13.7333333,27.4300847 15.1985876,29 17,29 C18.8014124,29 20.2666667,27.4300847 20.2666667,25.5 C20.2666667,23.5699153 18.8014124,22 17,22 M17,32 C13.1399259,32 10,28.8600741 10,25 C10,21.1399259 13.1399259,18 17,18 C20.8600741,18 24,21.1399259 24,25 C24,28.8600741 20.8600741,32 17,32" id="Fill-3013"></path>
                <path d="M36.5,22 C34.5699153,22 33,23.5699153 33,25.5 C33,27.4300847 34.5699153,29 36.5,29 C38.4300847,29 40,27.4300847 40,25.5 C40,23.5699153 38.4300847,22 36.5,22 M37,32 C33.1399259,32 30,28.8600741 30,25 C30,21.1399259 33.1399259,18 37,18 C40.8600741,18 44,21.1399259 44,25 C44,28.8600741 40.8600741,32 37,32" id="Fill-3014"></path>
                <polygon id="Fill-3015" points="30 8 34 8 34 2 30 2"></polygon>
                <polygon id="Fill-3016" points="38 12 42 12 42 5 38 5"></polygon>
                <polygon id="Fill-3017" points="47.7306242 17 44 15.9798293 45.2693758 12 49 13.0201707"></polygon>
                <path d="M26.9989947,51 C26.162616,51 25.3262374,50.7726381 24.5823429,50.3179144 L10,41.4189278 L11.8677784,38.0021249 L26.4501212,46.8989866 C26.7899001,47.1050997 27.2100999,47.1050997 27.5478683,46.8989866 L42.1322216,38 L44,41.4210526 L29.4156466,50.3179144 C28.6717521,50.7726381 27.8353734,51 26.9989947,51" id="Fill-3018"></path>
                <polygon id="Fill-3019" points="2 27 11 27 11 23 2 23"></polygon>
                <polygon id="Fill-3020" points="22 27 31 27 31 23 22 23"></polygon>
                <polygon id="Fill-3021" points="41 27 51 27 51 23 41 23"></polygon>
            </g>
        </g>
    </g>
</svg>