<?xml version="1.0" encoding="UTF-8"?>
<svg width="50px" height="59px" viewBox="0 0 50 59" version="1.1" xmlns="http://www.w3.org/2000/svg" xmlns:xlink="http://www.w3.org/1999/xlink">
    <!-- Generator: Sketch 55.1 (78136) - https://sketchapp.com -->
    <title>Group 75</title>
    <desc>Created with Sketch.</desc>
    <g id="Page-1" stroke="none" stroke-width="1" fill="none" fill-rule="evenodd">
        <g id="Group-75" transform="translate(-5.000000, 0.000000)">
            <rect id="Rectangle" fill="#D8D8D8" opacity="0" x="0" y="0" width="60" height="60"></rect>
            <g id="Group-28" transform="translate(5.000000, 0.000000)" fill="#FFFFFF">
                <path d="M11.3,54.6 L45.7,54.6 L45.7,21.207148 C45.7,20.2108998 44.9075298,19.4 43.9339235,19.4 L28.7569868,19.4 L11.3,37.2652801 L11.3,54.6 Z M50,59 L7,59 L7,35.4122522 L26.9495463,15 L43.8726071,15 C47.2509047,15 50,17.8108675 50,21.2679115 L50,59 Z" id="Fill-2896"></path>
                <path d="M13.0328506,7.33333333 C12.0959372,7.33333333 11.3333333,8.09593725 11.3333333,9.03285063 L11.3333333,18.1666667 L22.1666667,7.33333333 L13.0328506,7.33333333 Z M7,29 L7,9.09823895 C7,5.73601519 9.73601519,3 13.098239,3 L33,3 L7,29 Z" id="Fill-2898"></path>
                <path d="M3.13485028,41.6022949 C1.22998534,40.7975269 0,38.9236339 0,36.827494 L0,30.3144878 L29.846723,0 L33,3.20503537 L4.4592727,32.1907202 L4.4592727,36.827494 C4.4592727,37.1784103 4.65440397,37.1773711 4.83176141,37.2545727 C5.01142219,37.3294348 5.08166215,37.2503203 5.32581654,37 L10.1449019,32.1907202 L13.4322058,35.0245375 L8.68130104,40.49106 C7.70698681,41.4783045 6.4148112,42 5.09499546,42 C4.43623927,42 3.77057304,41.8689913 3.13485028,41.6022949 Z" id="Fill-2900"></path>
                <path d="M28,52 C21.7429698,52 16.2772634,47.3421668 15,40.9259548 L19.2241084,40 C20.0867627,44.3304754 23.7758916,47.4707716 28,47.4707716 C32.2241084,47.4707716 35.9132373,44.3304754 36.7758916,40 L41,40.9259548 C39.7249657,47.3421668 34.2570302,52 28,52" id="Fill-2902"></path>
                <path d="M33.5,27.3333333 C32.3054594,27.3333333 31.3333333,28.3054594 31.3333333,29.5 C31.3333333,30.6945406 32.3054594,31.6666667 33.5,31.6666667 C34.6945406,31.6666667 35.6666667,30.6945406 35.6666667,29.5 C35.6666667,28.3054594 34.6945406,27.3333333 33.5,27.3333333 M33.5,36 C29.9161912,36 27,33.0856073 27,29.5011593 C27,25.9167113 29.9161912,23 33.5,23 C37.0838088,23 40,25.9167113 40,29.5011593 C40,33.0856073 37.0838088,36 33.5,36" id="Fill-2904"></path>
            </g>
        </g>
    </g>
</svg>