<?xml version="1.0" encoding="UTF-8"?>
<svg width="59px" height="59px" viewBox="0 0 59 59" version="1.1" xmlns="http://www.w3.org/2000/svg" xmlns:xlink="http://www.w3.org/1999/xlink">
    <!-- Generator: Sketch 55.1 (78136) - https://sketchapp.com -->
    <title>Group 77</title>
    <desc>Created with Sketch.</desc>
    <g id="Page-1" stroke="none" stroke-width="1" fill="none" fill-rule="evenodd">
        <g id="Group-77" transform="translate(-1.000000, 0.000000)">
            <rect id="Rectangle-Copy-42" fill="#D8D8D8" opacity="0" x="0" y="0" width="60" height="60"></rect>
            <g id="Group-29" transform="translate(1.000000, 0.000000)" fill="#FFFFFF">
                <path d="M39.2531855,20 C37.0474867,20 35.2521,21.5713898 35.2521,23.5 C35.2521,25.4305103 37.0474867,27 39.2531855,27 C41.4588843,27 43.2521,25.4305103 43.2521,23.5 C43.2521,21.5713898 41.4588843,20 39.2531855,20 M39.2531812,31 C34.8396118,31 31.2521,27.6346804 31.2521,23.4989863 C31.2521,19.3632923 34.8396118,16 39.2531812,16 C43.6645882,16 47.2521,19.3632923 47.2521,23.4989863 C47.2521,27.6346804 43.6645882,31 39.2531812,31" id="Fill-2932"></path>
                <path d="M29.5,50 C22.2719204,50 15.5671313,46.125903 12,39.8885449 L15.371158,38 C18.2502978,43.0361197 23.6645818,46.1671827 29.5,46.1671827 C35.3333333,46.1671827 40.7476173,43.0361197 43.6267572,38 L47,39.8885449 C43.4328687,46.125903 36.7259948,50 29.5,50" id="Fill-2934"></path>
                <path d="M29.538939,59 C14.0075274,59 1.0923977,46.9432445 0.138917627,31.5507518 L0,29.3255328 L2.23741572,29.4928425 C2.74467554,29.5304871 3.25404017,29.557675 3.76971924,29.557675 C14.8347187,29.557675 23.8370019,20.61288 23.8370019,9.61854109 C23.8370019,7.5125302 23.5023367,5.42952439 22.8456352,3.4259907 L26.5606293,2.22136083 C27.3478292,4.61388959 27.7456388,7.10262143 27.7456388,9.61854109 C27.7456388,22.5913172 17.2573579,33.1757473 4.26435018,33.4371687 C6.0808034,45.7532542 16.7942992,55.1163235 29.538939,55.1163235 C43.6285541,55.1163235 55.0913631,43.7246241 55.0913631,29.7249847 C55.0913631,17.6180363 46.4279548,7.14235748 34.4915629,4.81256986 L35.2450858,1 C49.0105597,3.68532074 59,15.7671727 59,29.7249847 C59,45.8682797 45.7838821,59 29.538939,59" id="Fill-2936"></path>
                <path d="M23.7261749,4 C12.395457,6.84571966 4.33056464,17.0740614 4.2521,29 C15.2986486,28.8802702 24.2521,19.7829471 24.2521,8.61814761 C24.2521,7.05952279 24.0739641,5.51372616 23.7261749,4 M3.99011917,33 C3.36605101,33 2.75263248,32.9705657 2.13921395,32.9243119 L0.420364111,32.7960627 L0.313867838,31.0972859 C0.277659105,30.4896789 0.2521,29.8799694 0.2521,29.2639526 C0.2521,14.9736239 10.5886282,2.78994648 24.8271799,0.296444954 L26.5204706,0 L27.052952,1.6146789 C27.8495441,4.01987768 28.2521,6.52178899 28.2521,9.05103211 C28.2521,22.2564985 17.3681809,33 3.99011917,33" id="Fill-2938"></path>
            </g>
        </g>
    </g>
</svg>